<?xml version="1.0" encoding="utf-8"?>
<!-- Generator: Adobe Illustrator 22.1.0, SVG Export Plug-In . SVG Version: 6.00 Build 0)  -->
<svg version="1.1" id="Layer_1" xmlns="http://www.w3.org/2000/svg" xmlns:xlink="http://www.w3.org/1999/xlink" x="0px" y="0px"
	 viewBox="0 0 1000 1000" style="enable-background:new 0 0 1000 1000;" xml:space="preserve">
<path d="M283.3,15.7l-6.3,5.6l-0.6,127.4l-0.6,127.4H150.5c-137.4,0-133.8-0.4-138.5,11.3c-2.9,7.1-1.2,15.9,4.2,20.5
	c3.6,3.4,10.3,3.6,131.9,4.2l128,0.4v187.5v187.3L148.6,688l-127.4,0.6l-5.6,6.3c-7.5,8.2-7.5,16.1,0,23.5l5.6,5.5h127.4h127.2
	l0.6,127.5l0.6,127.5l6.3,5.5c7.6,6.9,15.5,7.3,22.8,1l5.4-4.6l1-128l1-127.8l188.1-0.6l187.9-0.4v125.3c0,137.6-0.4,134,11.3,138.7
	c7.5,3.1,16.5,1,21.2-5.2c3.8-4.8,3.8-7.5,3.8-131.9V724h127.1c125.5,0,127.1,0,132-4c4.2-3.2,5-5.5,5-13c0-7.3-1-10-5-13.8l-5-4.6
	L852.8,688l-127.1-0.6V500.1V312.5l128-0.4c122.9-0.6,128.2-0.8,132-4.2c4-3.6,5.5-15.9,2.9-23.1c-3.2-8.6-4.8-8.6-137.6-8.6H725.7
	V148.8V21.3l-5.5-5.6c-8.8-8.6-23.5-6.1-28.5,5c-1.7,3.6-2.3,37.1-2.3,130.1v125.3H500.9H312.4V148.7V21.3l-5.5-5.6
	C299.4,8.3,291.5,8.3,283.3,15.7z M689.4,500.1v187.5H500.9H312.4V500.1V312.5h188.5h188.5L689.4,500.1L689.4,500.1z"/>
<path d="M789.2,64.2c-3.2,1.3-6.9,4.8-8.2,7.7c-5.2,11.5-4,13.6,27.8,45.6l30,30.2l-30,30.2c-32.2,32.3-33.3,34.4-27.2,46.3
	c3.6,6.9,13.4,10.5,21.2,7.6c3.1-1.1,18.2-14.7,33.9-30.2l28.1-28.1l28.3,28.1c15.5,15.3,30,28.9,32.5,30.2
	c12.8,6.3,28.3-8.8,23.2-22.8c-1.2-2.7-14.5-17.6-30-33.3l-28.1-28.1l28.1-28.3c15.5-15.5,28.9-30.4,30-33.1
	c5.2-14-10.3-29.1-23.2-22.8c-2.5,1.3-17,14.9-32.5,30.2l-28.3,28.1l-28.1-28.1c-24.5-24.3-34.6-32.3-40.4-32.2
	C795.6,61.7,792.3,62.8,789.2,64.2z"/>
<path d="M487.5,60.7c-5.5,1-15.7,4.4-22.4,7.5c-44.8,21.4-63.3,76.5-40.8,120.9c5.7,11.1,23.3,29.3,35.2,36
	c53.2,30.4,121.3-2.9,131.3-64.3c7.3-45.7-23.7-89.6-70.8-99.5C505.9,58.4,502.4,58.2,487.5,60.7z M526.1,100.9
	c31.4,15.7,39.4,56.3,16.1,81.5c-12.1,13-20.5,16.6-38.7,16.8c-18,0-26.4-3.2-38.5-15.3c-14.4-14.3-18.4-38.8-9.6-57.4
	C468.3,99.4,500.1,87.9,526.1,100.9z"/>
<path d="M487.5,403c-5.5,1-15.7,4.4-22.4,7.5c-44.8,21.4-63.3,76.5-40.8,120.9c5.7,11.1,23.3,29.3,35.2,36
	c53.2,30.4,121.3-2.9,131.3-64.3c7.3-45.7-23.7-89.6-70.8-99.5C505.9,400.7,502.4,400.5,487.5,403z M526.1,443.2
	c31.4,15.7,39.4,56.3,16.1,81.5c-12.1,13-20.5,16.6-38.7,16.8c-18,0-26.4-3.2-38.5-15.3c-14.4-14.4-18.4-38.9-9.6-57.4
	C468.3,441.6,500.1,430.2,526.1,443.2z"/>
<path d="M127.5,60.3c-5.6,1-15.7,4.4-22.4,7.5c-44.8,21.4-63.3,76.5-40.8,120.9c5.7,11.1,23.4,29.3,35.2,36
	c53.2,30.4,121.3-2.9,131.3-64.3c7.3-45.7-23.7-89.6-70.8-99.5C145.9,58,142.4,57.9,127.5,60.3z M166.1,100.5
	c31.4,15.7,39.4,56.3,16.1,81.5c-12.1,13-20.5,16.7-38.7,16.8c-18,0-26.4-3.2-38.5-15.3c-14.3-14.3-18.4-38.8-9.6-57.4
	C108.3,99,140.1,87.5,166.1,100.5z"/>
<path d="M789.2,769.2c-3.2,1.3-6.9,4.8-8.2,7.7c-5.2,11.5-4,13.6,27.8,45.5l30,30.2l-30,30.2c-32.2,32.3-33.3,34.5-27.2,46.3
	c3.6,6.9,13.4,10.5,21.2,7.7c3.1-1.2,18.2-14.7,33.9-30.2l28.1-28.1l28.3,28.1c15.5,15.3,30,28.9,32.5,30.2
	c12.8,6.3,28.3-8.8,23.2-22.8c-1.2-2.7-14.5-17.6-30-33.3l-28.1-28.1l28.1-28.3c15.5-15.5,28.9-30.4,30-33.1
	c5.2-14-10.3-29.1-23.2-22.8c-2.5,1.3-17,14.9-32.5,30.2l-28.3,28.1l-28.1-28.1c-24.5-24.3-34.6-32.3-40.4-32.2
	C795.6,766.7,792.3,767.8,789.2,769.2z"/>
<path d="M68.3,769.2c-3.2,1.3-6.9,4.8-8.2,7.7c-5.2,11.5-4,13.6,27.8,45.5l30,30.2l-30,30.2c-32.1,32.3-33.3,34.5-27.2,46.3
	c3.6,6.9,13.4,10.5,21.2,7.7c3.1-1.2,18.2-14.7,33.9-30.2l28.1-28.1l28.3,28.1c15.5,15.3,30,28.9,32.5,30.2
	c12.8,6.3,28.3-8.8,23.2-22.8c-1.2-2.7-14.5-17.6-30-33.3l-28.1-28.1l28.1-28.3c15.5-15.5,28.9-30.4,30-33.1
	c5.2-14-10.3-29.1-23.2-22.8c-2.5,1.3-17,14.9-32.5,30.2l-28.3,28.1l-28.1-28.1c-24.5-24.3-34.6-32.3-40.4-32.2
	C74.6,766.7,71.3,767.8,68.3,769.2z"/>
</svg>
